<svg xmlns="http://www.w3.org/2000/svg" width="580" height="300" viewBox="0 0 580 300">
  <!-- Sloga original artwork (face-filter asset) -->
  <g>
    <path d="M150 30 C 90 10, 30 60, 25 140 C 22 200, 55 265, 105 285 C 140 297, 170 280, 175 240 C 182 170, 185 90, 150 30 Z" fill="#8a5a2b"/>
    <path d="M143 60 C 105 50, 65 90, 62 150 C 60 195, 85 245, 118 260 C 140 268, 155 252, 158 225 C 162 170, 165 105, 143 60 Z" fill="#c48a52"/>
  </g>
  <g transform="translate(580,0) scale(-1,1)">
    <path d="M150 30 C 90 10, 30 60, 25 140 C 22 200, 55 265, 105 285 C 140 297, 170 280, 175 240 C 182 170, 185 90, 150 30 Z" fill="#8a5a2b"/>
    <path d="M143 60 C 105 50, 65 90, 62 150 C 60 195, 85 245, 118 260 C 140 268, 155 252, 158 225 C 162 170, 165 105, 143 60 Z" fill="#c48a52"/>
  </g>
</svg>
