<svg xmlns="http://www.w3.org/2000/svg" width="540" height="300" viewBox="0 0 540 300">
  <!-- Sloga original artwork (face-filter asset) -->
  <!-- Horns -->
  <g>
    <path d="M150 280 C 105 250, 68 195, 55 125 C 48 88, 52 50, 68 18 C 88 55, 115 80, 142 102 C 128 130, 122 165, 128 200 C 132 230, 140 258, 150 280 Z" fill="#8c2f2f"/>
    <path d="M68 18 C 88 55, 115 80, 142 102 C 136 114, 131 127, 128 141 C 100 118, 78 88, 66 52 C 65 40, 66 29, 68 18 Z" fill="#b24545"/>
  </g>
  <g transform="translate(540,0) scale(-1,1)">
    <path d="M150 280 C 105 250, 68 195, 55 125 C 48 88, 52 50, 68 18 C 88 55, 115 80, 142 102 C 128 130, 122 165, 128 200 C 132 230, 140 258, 150 280 Z" fill="#8c2f2f"/>
    <path d="M68 18 C 88 55, 115 80, 142 102 C 136 114, 131 127, 128 141 C 100 118, 78 88, 66 52 C 65 40, 66 29, 68 18 Z" fill="#b24545"/>
  </g>
  <!-- Ridge spikes between horns -->
  <g fill="#8c2f2f">
    <path d="M215 250 L 240 195 L 258 250 Z"/>
    <path d="M252 245 L 270 180 L 288 245 Z"/>
    <path d="M282 250 L 300 195 L 325 250 Z"/>
  </g>
</svg>
