<svg xmlns="http://www.w3.org/2000/svg" width="240" height="300" viewBox="0 0 240 300">
  <!-- Sloga original artwork (face-filter asset) — breath weapon -->
  <path d="M120 8 C 165 55, 205 110, 215 175 C 222 225, 195 275, 145 290 C 160 262, 158 235, 142 215 C 150 250, 132 278, 100 285 C 62 292, 28 265, 22 220 C 17 180, 38 140, 62 105 C 55 140, 62 165, 82 175 C 70 130, 85 65, 120 8 Z" fill="#f2842d"/>
  <path d="M120 60 C 148 100, 170 145, 172 190 C 173 227, 152 255, 122 260 C 133 240, 132 220, 120 205 C 122 232, 108 252, 84 253 C 60 253, 44 233, 44 205 C 44 172, 62 140, 84 112 C 80 140, 88 158, 104 163 C 96 128, 103 92, 120 60 Z" fill="#ffb84d"/>
  <path d="M118 120 C 136 148, 148 178, 146 205 C 144 228, 130 240, 112 240 C 92 240, 80 224, 82 202 C 84 178, 98 148, 118 120 Z" fill="#ffe08a"/>
</svg>
