<svg xmlns="http://www.w3.org/2000/svg" width="480" height="210" viewBox="0 0 480 210">
  <!-- Sloga original artwork (face-filter asset) — floating game HUD -->
  <!-- Level tag -->
  <g font-family="'Courier New', monospace" font-weight="bold">
    <text x="26" y="66" font-size="52" fill="#0f1318" stroke="#0f1318" stroke-width="8" stroke-linejoin="round">LVL 99</text>
    <text x="26" y="66" font-size="52" fill="#ffd166">LVL 99</text>
  </g>
  <!-- Heart icon -->
  <path d="M52 128 C 30 112, 16 98, 16 82 C 16 70, 26 62, 36 62 C 44 62, 49 66, 52 73 C 55 66, 60 62, 68 62 C 78 62, 88 70, 88 82 C 88 98, 74 112, 52 128 Z" fill="#e63956" transform="translate(0,52)"/>
  <!-- Bar frame -->
  <rect x="104" y="112" width="352" height="64" rx="14" fill="#0f1318"/>
  <rect x="112" y="120" width="336" height="48" rx="9" fill="#232a33"/>
  <!-- Fill ~85% -->
  <rect x="112" y="120" width="286" height="48" rx="9" fill="#3ecf6e"/>
  <rect x="112" y="120" width="286" height="20" rx="9" fill="#6fe397" opacity="0.8"/>
  <!-- Segment ticks -->
  <g fill="#0f1318" opacity="0.35">
    <rect x="178" y="120" width="6" height="48"/>
    <rect x="248" y="120" width="6" height="48"/>
    <rect x="318" y="120" width="6" height="48"/>
    <rect x="388" y="120" width="6" height="48"/>
  </g>
</svg>
