<svg xmlns="http://www.w3.org/2000/svg" width="460" height="430" viewBox="0 0 460 430">
  <!-- Sloga original artwork (face-filter asset) -->
  <!-- Beard body -->
  <path d="M60 20 C 40 90, 38 180, 70 250 C 100 315, 170 350, 230 350 C 290 350, 360 315, 390 250 C 422 180, 420 90, 400 20 C 370 60, 330 78, 300 84 C 322 130, 320 190, 292 228 C 262 268, 198 268, 168 228 C 140 190, 138 130, 160 84 C 130 78, 90 60, 60 20 Z" fill="#b0552a"/>
  <!-- Beard strand highlights -->
  <g stroke="#c96f3f" stroke-width="12" stroke-linecap="round" fill="none" opacity="0.85">
    <path d="M95 90 C 82 150, 88 215, 118 268"/>
    <path d="M365 90 C 378 150, 372 215, 342 268"/>
    <path d="M150 300 C 180 322, 280 322, 310 300"/>
  </g>
  <!-- Mustache -->
  <path d="M230 60 C 205 30, 160 26, 128 44 C 100 60, 76 58, 58 44 C 70 96, 112 122, 158 114 C 192 108, 216 84, 230 60 Z" fill="#8a4a22"/>
  <path d="M230 60 C 255 30, 300 26, 332 44 C 360 60, 384 58, 402 44 C 390 96, 348 122, 302 114 C 268 108, 244 84, 230 60 Z" fill="#8a4a22"/>
  <!-- Braids -->
  <g>
    <path d="M96 250 C 88 290, 92 330, 104 366 C 118 402, 142 414, 158 404 C 146 392, 140 376, 142 356 C 128 350, 120 336, 122 318 C 110 308, 104 292, 108 274 Z" fill="#9a4a24"/>
    <rect x="96" y="360" width="52" height="18" rx="9" fill="#8a5a2b" transform="rotate(18 122 369)"/>
  </g>
  <g transform="translate(460,0) scale(-1,1)">
    <path d="M96 250 C 88 290, 92 330, 104 366 C 118 402, 142 414, 158 404 C 146 392, 140 376, 142 356 C 128 350, 120 336, 122 318 C 110 308, 104 292, 108 274 Z" fill="#9a4a24"/>
    <rect x="96" y="360" width="52" height="18" rx="9" fill="#8a5a2b" transform="rotate(18 122 369)"/>
  </g>
</svg>
