<svg xmlns="http://www.w3.org/2000/svg" width="420" height="440" viewBox="0 0 420 440">
  <!-- Sloga original artwork (face-filter asset) -->
  <!-- Crooked cone -->
  <path d="M210 380 L 90 380 C 130 300, 160 210, 178 120 C 185 82, 205 40, 250 18 C 232 55, 236 92, 244 128 C 262 215, 288 300, 330 380 Z" fill="#4b3f8f"/>
  <path d="M250 18 C 232 55, 236 92, 244 128 C 262 215, 288 300, 330 380 L 268 380 C 244 300, 228 210, 224 120 C 222 84, 230 48, 250 18 Z" fill="#3a3070"/>
  <!-- Bent tip -->
  <path d="M250 18 C 285 8, 315 16, 330 38 C 305 34, 282 42, 266 60 C 258 44, 252 30, 250 18 Z" fill="#4b3f8f"/>
  <!-- Brim -->
  <ellipse cx="210" cy="386" rx="200" ry="44" fill="#4b3f8f"/>
  <ellipse cx="210" cy="378" rx="160" ry="30" fill="#5a4dae"/>
  <!-- Band -->
  <path d="M120 348 C 180 362, 240 362, 300 348 L 306 372 C 240 386, 180 386, 114 372 Z" fill="#ffd166"/>
  <!-- Stars + moon -->
  <g fill="#ffd166">
    <path d="M180 220 l 8 20 20 2 -15 14 5 21 -18 -12 -18 12 5 -21 -15 -14 20 -2 Z"/>
    <path d="M258 268 l 6 15 15 2 -11 10 4 16 -14 -9 -13 9 4 -16 -12 -10 16 -2 Z"/>
    <path d="M232 170 a 26 26 0 1 0 22 40 a 20 20 0 1 1 -22 -40 Z"/>
  </g>
</svg>
